<svg width="60" height="60" viewBox="0 0 60 60" fill="none" xmlns="http://www.w3.org/2000/svg">
<path d="M58.6403 14.46C57.9653 16.5825 57.0553 18.43 55.9153 20.1075L55.9628 20.0325C54.8428 21.8992 53.5053 24.0558 51.9503 26.5025C50.617 28.4342 49.9111 29.4342 49.8328 29.5025C49.4878 29.935 49.2478 30.465 49.1653 31.0475L49.1628 31.065C49.2303 31.595 49.4753 32.0575 49.8328 32.4025L50.8328 33.5175C56.1828 39.0158 59.192 42.8058 59.8603 44.8875C59.9478 45.1175 59.9978 45.3825 59.9978 45.66C59.9978 46.145 59.8428 46.5925 59.5803 46.96L59.5853 46.9525C59.1453 47.405 58.5303 47.685 57.8503 47.685C57.7753 47.685 57.6978 47.6825 57.6253 47.675H57.6353H51.0578C51.0553 47.675 51.0503 47.675 51.0453 47.675C50.2028 47.675 49.4278 47.38 48.8203 46.89L48.8278 46.895C47.9428 46.1675 47.1553 45.38 46.4503 44.525L46.4278 44.495C45.2761 43.1933 44.2545 42.0975 43.3628 41.2075C40.3928 38.3842 38.2011 36.9725 36.7878 36.9725C36.7353 36.9675 36.6753 36.965 36.6128 36.965C36.2003 36.965 35.8153 37.0925 35.4978 37.31L35.5053 37.305C35.2453 37.63 35.0878 38.05 35.0878 38.5025C35.0878 38.5925 35.0928 38.6775 35.1053 38.765V38.755C35.0378 39.54 34.9978 40.4525 34.9978 41.375C34.9978 41.6725 35.0028 41.9675 35.0103 42.2625V42.22V45.1175C35.0353 45.235 35.0503 45.37 35.0503 45.5075C35.0503 46.1125 34.7753 46.6525 34.3453 47.01L34.3428 47.0125C33.3753 47.455 32.2453 47.715 31.0528 47.715C30.7978 47.715 30.5478 47.7025 30.3003 47.68L30.3328 47.6825C26.3978 47.6075 22.7478 46.455 19.6453 44.5125L19.7328 44.5625C15.9553 42.2675 12.8253 39.28 10.4403 35.75L10.3728 35.645C8.10781 32.64 5.99531 29.245 4.19531 25.665L4.02031 25.28C2.96781 23.275 1.87781 20.81 0.937812 18.275L0.787812 17.8125C0.405312 16.6725 0.127812 15.3475 0.0128125 13.975L0.0078125 13.9125C0.0078125 12.6492 0.751146 12.0175 2.23781 12.0175H8.81281C8.87281 12.0125 8.94281 12.01 9.01531 12.01C9.63531 12.01 10.2078 12.2225 10.6603 12.58L10.6553 12.575C11.1553 13.1225 11.5253 13.795 11.7078 14.545L11.7153 14.575C12.9253 17.9925 14.2078 20.8625 15.6828 23.6125L15.5153 23.27C16.7203 25.695 18.0528 27.7825 19.5728 29.71L19.5153 29.6325C20.8486 31.2692 21.8886 32.0875 22.6353 32.0875C22.6578 32.09 22.6853 32.09 22.7153 32.09C23.0853 32.09 23.4078 31.89 23.5828 31.59L23.5853 31.585C23.7703 31.11 23.8778 30.5575 23.8778 29.9825C23.8778 29.86 23.8728 29.7375 23.8628 29.6175V29.6325V19.935C23.8103 18.7925 23.5303 17.725 23.0628 16.7675L23.0828 16.815C22.7728 16.155 22.4003 15.585 21.9578 15.0775L21.9653 15.0875C21.5553 14.6775 21.2753 14.14 21.1878 13.54L21.1853 13.525C21.1853 13.1 21.3803 12.7175 21.6853 12.4675L21.6878 12.465C21.9903 12.1875 22.3953 12.02 22.8378 12.02H22.8578H33.2228C33.2778 12.0125 33.3403 12.01 33.4053 12.01C33.8928 12.01 34.3303 12.23 34.6203 12.575L34.6228 12.5775C34.8803 13.0475 35.0328 13.61 35.0328 14.205C35.0328 14.3 35.0278 14.3925 35.0203 14.485V14.4725V27.405C35.0153 27.465 35.0128 27.535 35.0128 27.605C35.0128 28.065 35.1403 28.4975 35.3603 28.865L35.3553 28.855C35.5378 29.125 35.8428 29.3 36.1878 29.3C36.6278 29.27 37.0303 29.125 37.3678 28.895L37.3603 28.9C38.0403 28.4325 38.6253 27.9 39.1328 27.2975L39.1428 27.285C40.6603 25.57 42.0603 23.675 43.2803 21.66L43.3778 21.485C44.2378 20.06 45.1678 18.305 46.0103 16.5025L46.1653 16.135L47.2803 13.905C47.6678 12.79 48.7078 12.005 49.9303 12.005C49.9778 12.005 50.0253 12.005 50.0728 12.0075H50.0653H56.6428C58.4195 12.0075 59.0861 12.825 58.6428 14.46H58.6403Z" fill="white"/>
</svg>
