<svg width="60" height="61" viewBox="0 0 60 61" fill="none" xmlns="http://www.w3.org/2000/svg">
<path d="M15.469 38.7796C21.1032 43.9358 23.216 48.7322 23.216 54.9676C23.216 61.2029 34.2497 59.764 36.0103 57.2459C37.771 54.7277 36.832 38.0601 43.1705 33.5035C49.5089 28.9469 53.265 26.3088 53.265 25.5894C53.265 24.8699 35.3061 24.0305 31.3152 26.7885C27.4417 29.5464 13.3562 29.5464 14.4126 32.904C15.469 36.2615 9.83483 33.6234 15.469 38.7796Z" fill="#E4F2AC"/>
<path d="M15.1167 38.4198C14.5298 37.7003 13.8256 36.9809 13.0039 36.1415C13.356 36.7411 13.9429 37.4605 15.1167 38.4198ZM46.5743 24.8699C50.3304 24.9898 53.2649 25.2296 53.2649 25.5893C53.2649 26.3088 49.6261 28.9468 43.1703 33.5035C36.7145 38.0601 37.7709 54.6078 36.0102 57.1259C34.2495 59.5242 23.8028 60.9631 23.2159 55.3273C26.6199 56.1666 31.315 55.0874 32.4888 53.5286C34.2495 51.0105 33.3105 34.4628 39.6489 29.9061C42.5834 27.8676 44.8136 26.1889 46.5743 24.8699Z" fill="#CAD98B"/>
<path d="M11.8313 36.3814C11.3617 35.1823 11.9486 34.4628 12.8877 33.9832L13.1224 33.8632C13.4746 33.7433 13.3572 33.7433 13.2398 33.3836C12.7703 31.7048 13.8267 30.6256 15.9395 29.7863C17.2307 29.3066 18.7566 28.9469 21.8085 28.3473C21.9259 28.3473 22.8649 28.1075 23.0996 28.1075C27.4427 27.2681 29.5555 26.6686 30.6119 25.9491C32.6073 24.5102 37.4199 23.9106 43.641 23.7907C50.5663 23.6708 54.3224 24.0305 54.3224 25.7093C54.3224 26.6686 53.6182 27.388 51.1532 29.1867C49.7447 30.2659 49.5099 30.5057 43.641 34.5827C41.4108 36.2615 39.8848 39.7389 38.9458 45.2548C38.711 46.4539 38.5937 47.653 38.3589 49.0919C38.2415 49.8114 38.0068 52.2096 37.8894 52.6893C37.5373 55.807 37.1851 57.126 36.5982 57.9654C35.4244 59.6441 31.7857 60.7233 28.4991 60.6034C24.5082 60.4835 21.6911 58.5649 21.6911 54.9676C21.6911 48.8521 19.6957 44.4154 14.4136 39.7389C13.0051 38.18 12.1834 37.2208 11.8313 36.3814ZM16.2917 37.8203C22.0432 42.9765 24.3908 48.0127 24.3908 54.8477C24.3908 56.8862 26.0341 57.9654 28.9686 58.0853C31.5509 58.2052 34.4854 57.3658 35.0723 56.4065C35.3071 56.0468 35.6592 54.7278 35.8939 52.2096C35.8939 51.73 36.2461 49.3318 36.3635 48.6123C36.5982 47.0535 36.7156 45.8543 36.9504 44.6552C38.0068 38.6597 39.6501 34.5827 42.5845 32.5442C48.3361 28.3473 48.5709 28.2274 49.9794 27.1482C50.3316 26.9084 50.6837 26.5487 51.0358 26.3089H50.4489C48.5709 26.1889 46.2233 26.069 43.8757 26.069C38.1241 26.1889 33.5464 26.7885 32.1378 27.7478C30.6119 28.827 28.3817 29.4265 23.6865 30.3858C23.4518 30.3858 22.5127 30.6256 22.3954 30.6256C19.5783 31.2252 18.0523 31.465 16.8786 31.9447C15.8221 32.3044 15.5874 32.5442 15.5874 32.5442C16.0569 34.223 15.47 35.1823 14.2962 35.9017C14.6484 36.3814 15.2353 36.9809 16.2917 37.8203Z" fill="#333333"/>
<path d="M31.5498 1.96687C26.033 1.24741 23.3332 3.28589 22.629 4.36509C20.5162 4.24518 18.9902 5.08456 17.9338 6.88322C14.6472 7.00313 12.6518 8.44206 11.9475 11.2C6.3133 11.6797 2.79193 14.4376 1.61814 19.7137C0.444355 24.9898 1.8529 28.9468 6.07854 31.7048C7.13496 36.6211 9.71729 39.3791 13.4734 40.4583C17.1122 41.5375 22.0421 41.2977 25.4461 35.0623C28.1458 36.0216 30.0239 35.0623 31.1976 32.0645C33.3105 33.7433 35.5407 33.6234 37.6535 31.7048C41.9965 34.8225 45.6352 34.3428 48.6871 30.3858C53.7344 32.3044 57.021 31.3451 58.4296 27.5079C60.5424 21.6323 55.0256 16.7159 51.3868 15.7566C50.9173 13.4783 49.5088 12.3991 46.9264 12.3991C46.6917 8.32215 44.1093 6.52349 39.062 6.88322C37.7709 4.00536 35.1885 2.44652 31.5498 1.96687Z" fill="#6FA763"/>
<path d="M46.8082 11.0801C45.517 9.64118 43.4042 9.04162 40.3523 9.28144C39.0611 6.52349 36.4788 4.84474 32.8401 4.36509C27.3233 3.64563 24.6235 5.68411 23.9193 6.76331C21.8064 6.6434 20.2805 7.48278 19.2241 9.28144C15.9375 9.40135 13.9421 10.8403 13.2378 13.5982C7.48621 14.0779 3.96484 16.8358 2.79106 22.1119C2.20416 24.5101 2.20416 26.7884 2.79106 28.707C1.14775 26.3088 0.678235 23.311 1.61727 19.7137C2.79106 14.4376 6.31242 11.6797 12.064 11.2C12.7683 8.44207 14.7637 7.00313 18.0503 6.88322C19.1067 5.08456 20.6327 4.24518 22.7455 4.36509C23.4497 3.28589 26.1495 1.24741 31.6663 1.96687C35.305 2.44652 37.8874 4.00536 39.1785 6.88322C43.5215 6.52349 46.1039 7.84251 46.8082 11.0801ZM47.6298 12.3991C49.7426 12.639 51.0338 13.7182 51.3859 15.7566C53.8509 16.4761 57.3723 19.1141 58.5461 22.5916C57.0201 20.3133 54.4378 18.6345 52.5597 18.1549C52.0902 15.8765 50.6817 14.7973 48.0993 14.7973C48.0993 13.8381 47.8646 13.1186 47.6298 12.3991ZM7.83835 36.3813C7.36883 35.542 6.89932 34.7026 6.54718 33.7433C6.78194 33.8632 7.0167 34.103 7.25146 34.2229C7.36883 34.9424 7.60359 35.6619 7.83835 36.3813Z" fill="#A8CAA1"/>
<path d="M33.7793 2.44659C35.54 3.04615 36.9485 3.88553 38.0049 5.20455C36.7138 4.12535 35.1878 3.16606 33.7793 2.44659ZM39.2961 6.8833C44.1086 6.52357 46.691 8.32223 46.9257 12.3992C49.3907 12.3992 50.9166 13.4784 51.3861 15.7567C54.9075 16.716 60.5417 21.6324 58.4289 27.508C57.0203 31.3451 53.7337 32.3044 48.6864 30.3859C45.6346 34.3429 41.9958 34.8226 37.6528 31.7049C35.4226 33.6234 33.3098 33.7434 31.197 32.0646C30.1405 35.0624 28.1451 36.0217 25.4454 35.0624C22.1588 41.2977 17.2289 41.4177 13.4727 40.4584C12.0642 40.0986 10.8904 39.3792 9.83398 38.5398C12.7685 38.5398 15.9377 37.1009 18.4026 32.6642C21.1024 33.6234 22.9804 32.6642 24.1542 29.6664C26.267 31.3451 28.4972 31.2252 30.6101 29.3067C34.9531 32.4243 38.5918 31.9447 41.6437 27.9876C46.691 29.9062 49.9776 28.9469 51.3861 25.1098C53.499 19.2341 47.9821 14.3178 44.3434 13.3585C43.8739 11.0802 42.4653 10.001 39.883 10.001C39.7656 8.68196 39.6482 7.60277 39.2961 6.8833Z" fill="#529344"/>
<path d="M31.6666 0.76779C35.4228 1.24743 38.1225 2.80628 39.7658 5.68414C44.4609 5.44432 47.3954 7.36289 47.9823 11.32C50.2125 11.5598 51.6211 12.8788 52.3253 14.9173C57.3726 16.596 61.4809 22.4717 59.4854 27.9876C57.8421 32.3044 54.2034 33.6234 49.0387 31.8247C45.8695 35.4221 41.996 35.9017 37.653 33.2637C35.6575 34.7026 33.5447 34.9424 31.5493 33.8632C30.2581 36.1415 28.2626 37.1008 25.9151 36.5013C22.7458 41.6574 18.1681 43.0964 13.1208 41.6574C9.0125 40.4583 6.19541 37.3406 5.02162 32.5442C0.678597 29.5464 -0.847329 25.1097 0.443839 19.4739C1.73501 13.958 5.37376 10.8403 11.1253 10.1208C12.0644 7.48281 14.1772 6.04387 17.3464 5.80405C18.5202 4.24521 20.1635 3.28592 22.0416 3.28592C23.6849 1.36735 27.2062 0.168235 31.6666 0.76779ZM31.4319 3.16601C29.0843 2.92619 27.2062 3.0461 25.6803 3.64565C24.6239 4.00539 23.9196 4.60494 23.6849 4.96467C23.4501 5.32441 23.098 5.56423 22.6285 5.56423C20.9852 5.44432 19.8114 6.16378 18.9897 7.48281C18.755 7.84254 18.4028 8.08236 18.0507 8.08236C15.2336 8.20227 13.7077 9.28147 13.1208 11.5598C13.0034 12.0394 12.5339 12.3992 12.0644 12.3992C6.7823 12.7589 3.84783 15.277 2.67404 19.9535C1.61763 24.75 2.79142 28.2274 6.54754 30.6256C6.7823 30.7455 7.01706 31.1053 7.01706 31.3451C7.95609 35.6619 10.1863 38.18 13.5903 39.1393C17.9333 40.3384 21.572 39.1393 24.1544 34.3429C24.3891 33.8632 24.976 33.6234 25.5629 33.7433C27.6758 34.4628 28.9669 33.8632 29.7886 31.465C30.0233 30.7455 30.9624 30.5057 31.5493 30.9854C33.3099 32.3044 34.8359 32.1845 36.5966 30.6256C36.9487 30.2659 37.5356 30.2659 38.0051 30.5057C41.8786 33.2637 44.8131 32.9039 47.5128 29.4265C47.8649 29.0668 48.3344 28.827 48.804 29.0668C53.3817 30.7455 55.8467 30.0261 57.0205 26.9084C58.5464 22.7115 54.9077 17.9151 50.7994 16.8359C50.3299 16.716 49.9778 16.3562 49.9778 15.8766C49.6256 14.1978 48.6866 13.4784 46.6911 13.4784C46.1042 13.4784 45.5174 12.9987 45.5174 12.3992C45.2826 9.04165 43.2871 7.72263 38.9441 8.08236C38.4746 8.08236 38.0051 7.84254 37.7703 7.36289C36.8313 4.96467 34.7185 3.52574 31.4319 3.16601Z" fill="#333333"/>
<path d="M23.1006 37.8203C22.631 37.3407 22.7484 36.5013 23.2179 36.1416C23.6875 35.6619 24.5091 35.7818 24.8612 36.2615C26.3872 38.0602 27.2088 39.9787 27.2088 42.0172C27.2088 42.7367 26.7393 43.2163 26.035 43.2163C25.3308 43.2163 24.8612 42.7367 24.8612 42.0172C24.8612 40.6982 24.2744 39.3792 23.1006 37.8203ZM35.1906 32.1845C35.6601 31.7049 36.3644 31.7049 36.8339 32.0646C37.3034 32.5442 37.3034 33.2637 36.9513 33.7434C35.4254 35.542 34.0168 40.8181 34.3689 45.8544C34.3689 46.5738 33.8994 47.0535 33.3125 47.1734C32.6083 47.1734 32.1387 46.6937 32.0214 46.0942C31.5518 40.4584 33.0778 34.5827 35.1906 32.1845ZM33.8994 19.354C33.3125 19.7138 32.6083 19.4739 32.2561 18.8744C31.904 18.2748 32.1387 17.5554 32.7256 17.1956C36.3644 15.0372 41.4117 15.6368 43.8766 18.3947C44.3462 18.8744 44.3462 19.5939 43.7593 20.0735C43.2897 20.5531 42.5855 20.5531 42.116 19.9536C40.4726 18.1549 36.5991 17.7952 33.8994 19.354ZM22.1615 11.6797C21.8094 12.2793 21.1051 12.5191 20.5182 12.1594C19.9313 11.7996 19.6966 11.0802 20.0487 10.4806C21.2225 8.20232 25.2134 8.0824 26.8567 10.3607C27.2088 10.9603 27.0914 11.6797 26.6219 12.0395C26.035 12.3992 25.3308 12.2793 24.9786 11.7996C24.3917 10.9603 22.5137 11.0802 22.1615 11.6797ZM12.5365 24.0306C12.0669 24.5102 11.3627 24.5102 10.8932 24.0306C10.4236 23.5509 10.4236 22.8315 10.8932 22.3518C13.8276 19.4739 19.4618 20.1934 21.1051 23.9107C21.3399 24.5102 21.1051 25.2297 20.5182 25.4695C19.9313 25.7093 19.2271 25.4695 18.9923 24.8699C18.0533 22.7115 14.4145 22.2319 12.5365 24.0306Z" fill="#333333"/>
</svg>
